<?xml version="1.0" encoding="UTF-8"?>
<!DOCTYPE svg PUBLIC "-//W3C//DTD SVG 1.1//EN" "http://www.w3.org/Graphics/SVG/1.1/DTD/svg11.dtd">
<svg xmlns="http://www.w3.org/2000/svg" version="1.1" width="1024px" height="1024px" style="shape-rendering:geometricPrecision; text-rendering:geometricPrecision; image-rendering:optimizeQuality; fill-rule:evenodd; clip-rule:evenodd" xmlns:xlink="http://www.w3.org/1999/xlink">
<g><path style="opacity:1" fill="#f8f2e7" d="M -0.5,-0.5 C 340.833,-0.5 682.167,-0.5 1023.5,-0.5C 1023.5,340.833 1023.5,682.167 1023.5,1023.5C 682.167,1023.5 340.833,1023.5 -0.5,1023.5C -0.5,682.167 -0.5,340.833 -0.5,-0.5 Z"/></g>
<g><path style="opacity:1" fill="#011e35" d="M 538.5,231.5 C 547.002,245.166 555.002,259.166 562.5,273.5C 568.308,284.446 574.141,295.446 580,306.5C 581.697,309.02 583.53,311.353 585.5,313.5C 586.5,313.833 587.167,314.5 587.5,315.5C 589.148,316.927 591.148,317.76 593.5,318C 622.247,322.902 650.914,328.236 679.5,334C 682.039,334.796 684.372,334.629 686.5,333.5C 687.791,333.263 688.791,333.596 689.5,334.5C 698.44,336.854 708.773,339.021 720.5,341C 722.953,341.959 725.286,343.126 727.5,344.5C 729.68,346.031 730.68,348.198 730.5,351C 730.316,354.553 729.15,357.719 727,360.5C 711.934,376.062 697.101,391.729 682.5,407.5C 676.5,411.5 671.5,416.5 667.5,422.5C 658.645,434.533 648.812,445.866 638,456.5C 637.55,460.188 637.717,463.854 638.5,467.5C 637.853,468.274 637.52,469.274 637.5,470.5C 642.136,507.859 646.969,545.192 652,582.5C 652.964,588.676 652.464,594.676 650.5,600.5C 646.792,602.592 642.792,603.426 638.5,603C 598.042,582.622 557.376,562.622 516.5,543C 503.772,543.743 492.105,547.576 481.5,554.5C 463.519,562.157 446.186,570.824 429.5,580.5C 414.048,587.392 398.715,594.559 383.5,602C 379.05,603.114 375.05,602.28 371.5,599.5C 369.975,593.492 368.975,587.492 368.5,581.5C 368.205,579.265 368.539,577.265 369.5,575.5C 369.34,577.199 369.506,578.866 370,580.5C 374.999,541.836 379.999,503.169 385,464.5C 385.667,460.833 385.667,457.167 385,453.5C 372.202,440.547 359.868,427.214 348,413.5C 347.329,412.748 346.496,412.414 345.5,412.5C 341.511,406.845 336.844,401.845 331.5,397.5C 318.139,385.306 305.639,372.306 294,358.5C 290.502,352.651 291.002,347.151 295.5,342C 297.407,340.878 299.407,340.045 301.5,339.5C 301.917,340.124 302.584,340.457 303.5,340.5C 345.718,332.956 388.051,326.123 430.5,320C 432.081,319.293 433.581,318.46 435,317.5C 445.965,300.561 456.131,283.228 465.5,265.5C 467.223,263.747 468.723,261.747 470,259.5C 478.446,244.271 486.613,228.938 494.5,213.5C 494.75,211.326 495.75,209.659 497.5,208.5C 500.514,204.995 503.181,201.162 505.5,197C 511.079,194.296 515.912,195.13 520,199.5C 525.436,210.72 531.602,221.387 538.5,231.5 Z"/></g>
<g><path style="opacity:1" fill="#0e0e15" d="M 538.5,231.5 C 531.602,221.387 525.436,210.72 520,199.5C 515.912,195.13 511.079,194.296 505.5,197C 503.181,201.162 500.514,204.995 497.5,208.5C 499.429,204.145 501.762,199.979 504.5,196C 510.745,192.184 516.245,193.017 521,198.5C 526.859,209.554 532.692,220.554 538.5,231.5 Z"/></g>
<g><path style="opacity:1" fill="#090911" d="M 494.5,213.5 C 486.613,228.938 478.446,244.271 470,259.5C 468.723,261.747 467.223,263.747 465.5,265.5C 474.156,247.513 483.823,230.18 494.5,213.5 Z"/></g>
<g><path style="opacity:1" fill="#f8f2e8" d="M 523.5,237.5 C 529.074,249.654 535.408,261.321 542.5,272.5C 546.833,281.167 551.167,289.833 555.5,298.5C 556.152,301.968 557.485,305.135 559.5,308C 558.833,308.667 558.167,309.333 557.5,310C 559.759,311.715 561.926,313.548 564,315.5C 566.582,320.333 569.415,325 572.5,329.5C 574.028,330.861 575.695,332.028 577.5,333C 599.065,337.946 620.398,341.946 641.5,345C 642.047,345.925 642.713,346.758 643.5,347.5C 644.696,347.154 644.696,346.654 643.5,346C 654.118,347.056 664.618,348.89 675,351.5C 675.671,350.748 676.504,350.414 677.5,350.5C 686.791,350.77 695.791,352.437 704.5,355.5C 683.478,378.853 662.478,402.187 641.5,425.5C 639.983,425.489 638.816,424.823 638,423.5C 632.4,414.408 625.9,406.074 618.5,398.5C 614.882,390.024 608.549,386.858 599.5,389C 593.348,393.323 587.681,398.157 582.5,403.5C 567.857,387.337 554.024,370.337 541,352.5C 538.151,349.426 535.317,346.426 532.5,343.5C 528.108,335.144 521.442,332.644 512.5,336C 499.174,347.818 487.507,360.985 477.5,375.5C 474.444,377.949 472.111,380.949 470.5,384.5C 464.866,391.076 459.7,398.076 455,405.5C 450.594,400.589 445.76,396.255 440.5,392.5C 435.591,385.247 429.258,383.747 421.5,388C 414.3,396.031 406.967,403.864 399.5,411.5C 398.153,412.171 396.986,412.171 396,411.5C 395.007,414.937 392.84,417.437 389.5,419C 390.061,420.566 389.394,421.899 387.5,423C 385.527,423.495 383.527,423.662 381.5,423.5C 381.64,421.876 380.973,420.71 379.5,420C 379.833,419.667 380.167,419.333 380.5,419C 379.109,417.35 377.609,416.85 376,417.5C 372.485,414.682 372.985,412.849 377.5,412C 375.443,411.695 373.443,411.695 371.5,412C 372.765,410.663 373.265,409.163 373,407.5C 371.899,409.394 370.566,410.061 369,409.5C 366.423,407.263 364.256,404.763 362.5,402C 363.833,401 365.167,400 366.5,399C 364.699,398.683 364.366,398.016 365.5,397C 363.331,396.571 361.331,397.071 359.5,398.5C 358.772,396.807 357.772,395.307 356.5,394C 356.833,393.667 357.167,393.333 357.5,393C 356.207,392.51 354.873,392.343 353.5,392.5C 353.785,388.962 352.118,387.129 348.5,387C 350.602,385.603 351.769,383.769 352,381.5C 351.333,382.833 350.667,382.833 350,381.5C 349.667,382.833 349.333,384.167 349,385.5C 347.786,383.951 346.286,382.785 344.5,382C 344.167,380.333 343.833,378.667 343.5,377C 345.595,376.444 345.762,375.944 344,375.5C 341.732,377.988 340.399,377.321 340,373.5C 339.667,374.167 339.333,374.833 339,375.5C 336.718,373.634 335.885,371.468 336.5,369C 329.718,366.229 324.051,361.896 319.5,356C 339.57,353.038 359.57,349.705 379.5,346C 378.584,345.722 377.918,345.222 377.5,344.5C 398.762,341.008 420.096,337.842 441.5,335C 446.013,334.758 449.013,332.592 450.5,328.5C 455.261,321.314 459.261,313.647 462.5,305.5C 471.257,291.659 479.257,277.325 486.5,262.5C 494.506,251.164 501.506,239.164 507.5,226.5C 509.474,224.572 510.974,222.239 512,219.5C 515.608,225.734 519.441,231.734 523.5,237.5 Z"/></g>
<g><path style="opacity:1" fill="#101016" d="M 507.5,226.5 C 501.506,239.164 494.506,251.164 486.5,262.5C 492.999,250.164 499.999,238.164 507.5,226.5 Z"/></g>
<g><path style="opacity:1" fill="#0d0e15" d="M 523.5,237.5 C 530.612,248.722 536.945,260.389 542.5,272.5C 535.408,261.321 529.074,249.654 523.5,237.5 Z"/></g>
<g><path style="opacity:1" fill="#0d0d13" d="M 486.5,262.5 C 479.257,277.325 471.257,291.659 462.5,305.5C 468.107,294.057 473.941,282.723 480,271.5C 482.188,268.433 484.355,265.433 486.5,262.5 Z"/></g>
<g><path style="opacity:1" fill="#0f1016" d="M 542.5,272.5 C 550.178,283.847 556.844,295.847 562.5,308.5C 560.167,305.167 557.833,301.833 555.5,298.5C 551.167,289.833 546.833,281.167 542.5,272.5 Z"/></g>
<g><path style="opacity:1" fill="#0a0b13" d="M 562.5,273.5 C 570.958,286.312 578.625,299.646 585.5,313.5C 583.53,311.353 581.697,309.02 580,306.5C 574.141,295.446 568.308,284.446 562.5,273.5 Z"/></g>
<g><path style="opacity:1" fill="#050710" d="M 587.5,315.5 C 588.167,315.5 588.833,315.5 589.5,315.5C 611.105,319.649 632.772,323.649 654.5,327.5C 665.139,329.628 675.806,331.628 686.5,333.5C 684.372,334.629 682.039,334.796 679.5,334C 650.914,328.236 622.247,322.902 593.5,318C 591.148,317.76 589.148,316.927 587.5,315.5 Z"/></g>
<g><path style="opacity:1" fill="#e3e3e4" d="M 589.5,315.5 C 594.102,314.379 598.602,315.046 603,317.5C 603.561,316.978 604.228,316.645 605,316.5C 620.514,319.24 636.014,322.074 651.5,325C 653.119,325.236 654.119,326.069 654.5,327.5C 632.772,323.649 611.105,319.649 589.5,315.5 Z"/></g>
<g><path style="opacity:1" fill="#02020b" d="M 462.5,305.5 C 459.261,313.647 455.261,321.314 450.5,328.5C 453.739,320.353 457.739,312.686 462.5,305.5 Z"/></g>
<g><path style="opacity:1" fill="#ededec" d="M 555.5,298.5 C 557.833,301.833 560.167,305.167 562.5,308.5C 564.973,313.447 567.473,318.447 570,323.5C 571.331,325.996 573.164,327.996 575.5,329.5C 575.611,330.117 575.944,330.617 576.5,331C 593.284,335.39 610.284,338.557 627.5,340.5C 628.209,341.404 629.209,341.737 630.5,341.5C 646.491,343.421 662.158,346.421 677.5,350.5C 676.504,350.414 675.671,350.748 675,351.5C 664.618,348.89 654.118,347.056 643.5,346C 644.696,346.654 644.696,347.154 643.5,347.5C 642.713,346.758 642.047,345.925 641.5,345C 620.398,341.946 599.065,337.946 577.5,333C 575.695,332.028 574.028,330.861 572.5,329.5C 569.415,325 566.582,320.333 564,315.5C 561.926,313.548 559.759,311.715 557.5,310C 558.167,309.333 558.833,308.667 559.5,308C 557.485,305.135 556.152,301.968 555.5,298.5 Z"/></g>
<g><path style="opacity:1" fill="#0f0f17" d="M 465.5,265.5 C 456.131,283.228 445.965,300.561 435,317.5C 433.581,318.46 432.081,319.293 430.5,320C 388.051,326.123 345.718,332.956 303.5,340.5C 302.584,340.457 301.917,340.124 301.5,339.5C 344.721,331.92 388.054,324.753 431.5,318C 434.001,315.861 436.168,313.361 438,310.5C 447.192,295.436 456.359,280.436 465.5,265.5 Z"/></g>
<g><path style="opacity:1" fill="#0e0f15" d="M 575.5,329.5 C 593.555,333.039 610.888,336.706 627.5,340.5C 610.284,338.557 593.284,335.39 576.5,331C 575.944,330.617 575.611,330.117 575.5,329.5 Z"/></g>
<g><path style="opacity:1" fill="#080910" d="M 689.5,334.5 C 699.529,335.744 709.529,337.244 719.5,339C 723.14,339.636 725.806,341.469 727.5,344.5C 725.286,343.126 722.953,341.959 720.5,341C 708.773,339.021 698.44,336.854 689.5,334.5 Z"/></g>
<g><path style="opacity:1" fill="#070810" d="M 450.5,328.5 C 449.013,332.592 446.013,334.758 441.5,335C 420.096,337.842 398.762,341.008 377.5,344.5C 357.545,348.113 337.545,351.446 317.5,354.5C 317.97,353.307 318.97,352.64 320.5,352.5C 342.651,349.503 364.651,345.67 386.5,341C 405.58,338.843 424.58,336.177 443.5,333C 446.233,332.096 448.567,330.596 450.5,328.5 Z"/></g>
<g><path style="opacity:1" fill="#0b0c13" d="M 532.5,343.5 C 529.61,340.447 526.276,337.947 522.5,336C 519.366,335.21 516.366,335.543 513.5,337C 509.033,340.465 504.867,344.298 501,348.5C 493.302,357.693 485.468,366.693 477.5,375.5C 487.507,360.985 499.174,347.818 512.5,336C 521.442,332.644 528.108,335.144 532.5,343.5 Z"/></g>
<g><path style="opacity:1" fill="#f8f2e8" d="M 589.5,445.5 C 592.634,450.119 596.968,451.619 602.5,450C 607.132,445.578 607.632,440.745 604,435.5C 599.815,430.429 595.648,425.429 591.5,420.5C 595.387,416.109 599.553,411.776 604,407.5C 610.363,416.681 616.863,425.681 623.5,434.5C 624.094,436.855 625.094,439.022 626.5,441C 624.347,443.822 622.181,446.656 620,449.5C 619.131,451.581 618.631,453.747 618.5,456C 624.297,496.408 629.297,536.908 633.5,577.5C 633.5,578.167 633.5,578.833 633.5,579.5C 594.495,560.998 555.495,542.498 516.5,524C 513.072,523.299 509.738,523.632 506.5,525C 487.137,532.516 468.47,541.35 450.5,551.5C 447.515,552.326 444.849,553.659 442.5,555.5C 429.179,561.164 415.845,566.83 402.5,572.5C 397.866,573.314 393.533,574.981 389.5,577.5C 389.167,576.5 388.833,575.5 388.5,574.5C 394.279,534.255 399.612,494.255 404.5,454.5C 404.406,452.077 403.906,449.744 403,447.5C 402.536,448.094 402.369,448.761 402.5,449.5C 400.969,446.615 398.969,443.948 396.5,441.5C 406.125,431.374 415.958,421.374 426,411.5C 426.464,410.906 426.631,410.239 426.5,409.5C 427.601,408.2 428.934,407.7 430.5,408C 442.368,420.035 454.368,431.869 466.5,443.5C 470.866,449.103 476.199,449.936 482.5,446C 486.395,441.935 490.395,438.102 494.5,434.5C 498.032,433.146 501.198,431.146 504,428.5C 508.849,433.575 513.682,438.575 518.5,443.5C 527.458,455.792 536.791,467.792 546.5,479.5C 548.981,485.817 553.481,489.817 560,491.5C 566.808,490.893 569.474,487.227 568,480.5C 565.882,475.906 563.048,471.906 559.5,468.5C 551.696,455.027 542.363,442.693 531.5,431.5C 526.524,425.683 521.691,419.683 517,413.5C 512.705,408.105 507.205,406.271 500.5,408C 495.228,410.791 490.562,414.291 486.5,418.5C 482.721,420.562 479.054,422.896 475.5,425.5C 472.683,423.183 470.016,420.683 467.5,418C 482.817,396.009 499.65,375.176 518,355.5C 528.041,366.539 537.708,377.873 547,389.5C 561.03,408.351 575.197,427.018 589.5,445.5 Z"/></g>
<g><path style="opacity:1" fill="#090a11" d="M 630.5,341.5 C 631.622,340.844 632.955,340.511 634.5,340.5C 657.464,344.86 680.464,349.026 703.5,353C 704.516,353.519 705.182,354.353 705.5,355.5C 700.964,362.545 695.464,368.878 689,374.5C 673.703,392.132 658.036,409.465 642,426.5C 641.601,426.272 641.435,425.938 641.5,425.5C 662.478,402.187 683.478,378.853 704.5,355.5C 695.791,352.437 686.791,350.77 677.5,350.5C 662.158,346.421 646.491,343.421 630.5,341.5 Z"/></g>
<g><path style="opacity:1" fill="#f2f1ee" d="M 377.5,344.5 C 377.918,345.222 378.584,345.722 379.5,346C 359.57,349.705 339.57,353.038 319.5,356C 324.051,361.896 329.718,366.229 336.5,369C 335.885,371.468 336.718,373.634 339,375.5C 339.333,374.833 339.667,374.167 340,373.5C 340.399,377.321 341.732,377.988 344,375.5C 345.762,375.944 345.595,376.444 343.5,377C 343.833,378.667 344.167,380.333 344.5,382C 346.286,382.785 347.786,383.951 349,385.5C 349.333,384.167 349.667,382.833 350,381.5C 350.667,382.833 351.333,382.833 352,381.5C 351.769,383.769 350.602,385.603 348.5,387C 352.118,387.129 353.785,388.962 353.5,392.5C 354.873,392.343 356.207,392.51 357.5,393C 357.167,393.333 356.833,393.667 356.5,394C 357.772,395.307 358.772,396.807 359.5,398.5C 361.331,397.071 363.331,396.571 365.5,397C 364.366,398.016 364.699,398.683 366.5,399C 365.167,400 363.833,401 362.5,402C 364.256,404.763 366.423,407.263 369,409.5C 370.566,410.061 371.899,409.394 373,407.5C 373.265,409.163 372.765,410.663 371.5,412C 373.443,411.695 375.443,411.695 377.5,412C 372.985,412.849 372.485,414.682 376,417.5C 377.609,416.85 379.109,417.35 380.5,419C 380.167,419.333 379.833,419.667 379.5,420C 380.973,420.71 381.64,421.876 381.5,423.5C 383.527,423.662 385.527,423.495 387.5,423C 389.394,421.899 390.061,420.566 389.5,419C 392.84,417.437 395.007,414.937 396,411.5C 396.986,412.171 398.153,412.171 399.5,411.5C 395.227,417.442 390.227,422.776 384.5,427.5C 378.813,422.145 373.146,416.812 367.5,411.5C 351.069,392.313 334.402,373.313 317.5,354.5C 337.545,351.446 357.545,348.113 377.5,344.5 Z"/></g>
<g><path style="opacity:1" fill="#0d0e16" d="M 470.5,384.5 C 466.06,392.393 460.893,399.726 455,406.5C 451.844,404.014 448.678,401.514 445.5,399C 443.21,397.223 441.543,395.056 440.5,392.5C 445.76,396.255 450.594,400.589 455,405.5C 459.7,398.076 464.866,391.076 470.5,384.5 Z"/></g>
<g><path style="opacity:1" fill="#0a0a11" d="M 618.5,398.5 C 615.703,396.205 613.036,393.705 610.5,391C 606.5,389 602.5,389 598.5,391C 593.333,395.5 588.167,400 583,404.5C 582.601,404.272 582.435,403.938 582.5,403.5C 587.681,398.157 593.348,393.323 599.5,389C 608.549,386.858 614.882,390.024 618.5,398.5 Z"/></g>
<g><path style="opacity:1" fill="#060711" d="M 331.5,397.5 C 336.844,401.845 341.511,406.845 345.5,412.5C 340.127,408.129 335.461,403.129 331.5,397.5 Z"/></g>
<g><path style="opacity:1" fill="#0c0d15" d="M 440.5,392.5 C 438.068,391.25 435.734,389.75 433.5,388C 430.5,387.333 427.5,387.333 424.5,388C 411.376,401.959 398.043,415.792 384.5,429.5C 378.086,424.09 372.419,418.09 367.5,411.5C 373.146,416.812 378.813,422.145 384.5,427.5C 390.227,422.776 395.227,417.442 399.5,411.5C 406.967,403.864 414.3,396.031 421.5,388C 429.258,383.747 435.591,385.247 440.5,392.5 Z"/></g>
<g><path style="opacity:1" fill="#0a0a12" d="M 466.5,443.5 C 454.368,431.869 442.368,420.035 430.5,408C 428.934,407.7 427.601,408.2 426.5,409.5C 427.072,406.756 428.738,405.923 431.5,407C 443.756,418.753 455.423,430.92 466.5,443.5 Z"/></g>
<g><path style="opacity:1" fill="#05050f" d="M 682.5,407.5 C 677.833,412.833 672.833,417.833 667.5,422.5C 671.5,416.5 676.5,411.5 682.5,407.5 Z"/></g>
<g><path style="opacity:1" fill="#101016" d="M 531.5,431.5 C 525.033,424.863 518.7,418.03 512.5,411C 509.068,408.928 505.402,408.262 501.5,409C 496.444,412.188 491.444,415.355 486.5,418.5C 490.562,414.291 495.228,410.791 500.5,408C 507.205,406.271 512.705,408.105 517,413.5C 521.691,419.683 526.524,425.683 531.5,431.5 Z"/></g>
<g><path style="opacity:1" fill="#0d0e14" d="M 518.5,443.5 C 513.682,438.575 508.849,433.575 504,428.5C 501.198,431.146 498.032,433.146 494.5,434.5C 496.237,432.45 498.237,430.617 500.5,429C 502.044,427.813 503.711,427.48 505.5,428C 510.444,432.766 514.778,437.933 518.5,443.5 Z"/></g>
<g><path style="opacity:1" fill="#0e0e14" d="M 591.5,420.5 C 595.648,425.429 599.815,430.429 604,435.5C 607.632,440.745 607.132,445.578 602.5,450C 596.968,451.619 592.634,450.119 589.5,445.5C 589.435,445.062 589.601,444.728 590,444.5C 596.788,451.897 601.955,451.064 605.5,442C 601.036,434.703 596.369,427.536 591.5,420.5 Z"/></g>
<g><path style="opacity:1" fill="#101016" d="M 559.5,468.5 C 563.048,471.906 565.882,475.906 568,480.5C 569.474,487.227 566.808,490.893 560,491.5C 553.481,489.817 548.981,485.817 546.5,479.5C 549.268,482.771 552.268,485.938 555.5,489C 564.334,491.835 567.834,488.668 566,479.5C 563.306,476.108 561.14,472.441 559.5,468.5 Z"/></g>
<g><path style="opacity:1" fill="#0c0d13" d="M 345.5,412.5 C 346.496,412.414 347.329,412.748 348,413.5C 359.868,427.214 372.202,440.547 385,453.5C 385.667,457.167 385.667,460.833 385,464.5C 379.999,503.169 374.999,541.836 370,580.5C 369.506,578.866 369.34,577.199 369.5,575.5C 374.572,535.849 379.572,496.182 384.5,456.5C 371.033,442.221 358.033,427.554 345.5,412.5 Z"/></g>
<g><path style="opacity:1" fill="#05060f" d="M 401.5,461.5 C 396.746,500.532 391.746,539.532 386.5,578.5C 385.844,577.378 385.511,576.045 385.5,574.5C 386.297,567.496 387.13,560.496 388,553.5C 392.087,522.06 396.587,491.393 401.5,461.5 Z"/></g>
<g><path style="opacity:1" fill="#07080f" d="M 623.5,434.5 C 625.303,436.481 626.97,438.648 628.5,441C 627.042,443.46 625.209,445.627 623,447.5C 621.128,450.205 620.295,453.205 620.5,456.5C 623.678,485.924 627.511,515.257 632,544.5C 632.734,553.676 633.568,562.842 634.5,572C 634.494,574.033 634.161,575.866 633.5,577.5C 629.297,536.908 624.297,496.408 618.5,456C 618.631,453.747 619.131,451.581 620,449.5C 622.181,446.656 624.347,443.822 626.5,441C 625.094,439.022 624.094,436.855 623.5,434.5 Z"/></g>
<g><path style="opacity:1" fill="#e7e8e8" d="M 402.5,572.5 C 397.48,575.677 392.146,578.343 386.5,580.5C 386.5,579.833 386.5,579.167 386.5,578.5C 391.746,539.532 396.746,500.532 401.5,461.5C 402.483,457.702 402.817,453.702 402.5,449.5C 402.369,448.761 402.536,448.094 403,447.5C 403.906,449.744 404.406,452.077 404.5,454.5C 399.612,494.255 394.279,534.255 388.5,574.5C 388.833,575.5 389.167,576.5 389.5,577.5C 393.533,574.981 397.866,573.314 402.5,572.5 Z"/></g>
<g><path style="opacity:1" fill="#0a0b13" d="M 633.5,579.5 C 633.44,580.043 633.107,580.376 632.5,580.5C 594.136,562.317 555.803,544.15 517.5,526C 514.167,525.333 510.833,525.333 507.5,526C 488.373,534.209 469.373,542.709 450.5,551.5C 468.47,541.35 487.137,532.516 506.5,525C 509.738,523.632 513.072,523.299 516.5,524C 555.495,542.498 594.495,560.998 633.5,579.5 Z"/></g>
<g><path style="opacity:1" fill="#090a11" d="M 650.5,600.5 C 649.547,602.61 647.881,603.777 645.5,604C 642.833,604.667 640.167,604.667 637.5,604C 596.833,584 556.167,564 515.5,544C 512.442,543.542 509.442,543.876 506.5,545C 498.135,548.187 489.802,551.353 481.5,554.5C 492.105,547.576 503.772,543.743 516.5,543C 557.376,562.622 598.042,582.622 638.5,603C 642.792,603.426 646.792,602.592 650.5,600.5 Z"/></g>
<g><path style="opacity:1" fill="#0d0d13" d="M 638.5,467.5 C 643.931,509.312 649.265,551.145 654.5,593C 654.376,596.252 653.042,598.752 650.5,600.5C 652.464,594.676 652.964,588.676 652,582.5C 646.969,545.192 642.136,507.859 637.5,470.5C 637.52,469.274 637.853,468.274 638.5,467.5 Z"/></g>
<g><path style="opacity:1" fill="#090910" d="M 442.5,555.5 C 435.386,559.559 428.052,563.392 420.5,567C 409.265,571.284 398.265,576.117 387.5,581.5C 386.893,581.376 386.56,581.043 386.5,580.5C 392.146,578.343 397.48,575.677 402.5,572.5C 415.845,566.83 429.179,561.164 442.5,555.5 Z"/></g>
<g><path style="opacity:1" fill="#141519" d="M 481.5,554.5 C 464.496,563.73 447.163,572.397 429.5,580.5C 446.186,570.824 463.519,562.157 481.5,554.5 Z"/></g>
<g><path style="opacity:1" fill="#141418" d="M 429.5,580.5 C 414.871,588.481 399.871,595.981 384.5,603C 373.187,605.672 367.521,601.172 367.5,589.5C 367.703,586.803 368.036,584.136 368.5,581.5C 368.975,587.492 369.975,593.492 371.5,599.5C 375.05,602.28 379.05,603.114 383.5,602C 398.715,594.559 414.048,587.392 429.5,580.5 Z"/></g>
<g><path style="opacity:1" fill="#e9e9e9" d="M 437.5,794.5 C 447.237,799.171 457.237,799.671 467.5,796C 470.756,794.884 473.422,793.051 475.5,790.5C 477.062,790.267 478.395,789.6 479.5,788.5C 479.852,791.428 480.518,794.262 481.5,797C 488.337,797.956 495.004,797.622 501.5,796C 500.503,755.906 500.17,715.739 500.5,675.5C 493.245,675.187 486.079,675.52 479,676.5C 478.177,690.408 478.344,704.242 479.5,718C 477.463,717.517 475.463,716.684 473.5,715.5C 468.456,711.546 462.623,709.88 456,710.5C 447.746,709.848 440.58,712.181 434.5,717.5C 434.167,717.5 433.833,717.5 433.5,717.5C 433.561,715.408 434.561,713.908 436.5,713C 444.386,708.982 452.719,707.648 461.5,709C 466.197,710.242 470.864,711.242 475.5,712C 476.157,699.895 476.824,687.729 477.5,675.5C 478.308,675.192 478.975,674.692 479.5,674C 487.564,673.137 495.564,673.47 503.5,675C 502.892,706.021 502.559,736.688 502.5,767C 502.763,774.424 503.429,781.757 504.5,789C 503.718,791.74 503.218,794.574 503,797.5C 502.261,798.574 501.261,799.241 500,799.5C 494.448,798.606 488.781,798.606 483,799.5C 479.945,797.74 478.112,795.073 477.5,791.5C 473.35,794.838 468.683,797.338 463.5,799C 457.167,799.667 450.833,799.667 444.5,799C 441.385,798.459 439.052,796.959 437.5,794.5 Z"/></g>
<g><path style="opacity:1" fill="#001e36" d="M 479.5,788.5 C 478.395,789.6 477.062,790.267 475.5,790.5C 463.291,797.388 450.624,798.222 437.5,793C 434.271,790.259 430.938,787.759 427.5,785.5C 415.858,765.753 415.525,745.753 426.5,725.5C 428.094,722.236 430.427,719.569 433.5,717.5C 433.833,717.5 434.167,717.5 434.5,717.5C 447.193,710.558 460.193,709.891 473.5,715.5C 474.956,718.535 477.123,719.869 480,719.5C 480.5,705.171 480.667,690.837 480.5,676.5C 486.833,676.5 493.167,676.5 499.5,676.5C 499.5,716.167 499.5,755.833 499.5,795.5C 493.794,795.829 488.128,795.495 482.5,794.5C 481.864,792.22 480.864,790.22 479.5,788.5 Z"/></g>
<g><path style="opacity:1" fill="#0a0b13" d="M 245.5,692.5 C 238.682,687.091 231.015,683.258 222.5,681C 208.864,679.495 195.531,680.662 182.5,684.5C 187.005,681.606 192.005,679.773 197.5,679C 213.358,676.505 228.025,679.505 241.5,688C 243.041,689.371 244.375,690.871 245.5,692.5 Z"/></g>
<g><path style="opacity:1" fill="#001e36" d="M 572.5,709.5 C 570.351,702.52 565.684,698.02 558.5,696C 552.606,694.963 546.939,695.629 541.5,698C 540.262,698.69 540.262,699.19 541.5,699.5C 539.833,700.5 538.5,701.833 537.5,703.5C 537.19,702.262 536.69,702.262 536,703.5C 532.662,711.506 534.495,718.006 541.5,723C 545.419,724.862 549.419,726.529 553.5,728C 564.391,729.639 574.724,732.972 584.5,738C 590.684,742.203 594.518,748.036 596,755.5C 596.464,754.906 596.631,754.239 596.5,753.5C 597.404,754.209 597.737,755.209 597.5,756.5C 597.078,765.924 594.745,774.924 590.5,783.5C 589.5,786.5 587.5,788.5 584.5,789.5C 577.696,793.394 570.363,795.894 562.5,797C 563.448,797.483 564.448,797.649 565.5,797.5C 564.081,798.451 562.415,798.784 560.5,798.5C 545.313,798.909 532.313,793.742 521.5,783C 521.833,782.667 522.167,782.333 522.5,782C 520.677,781.003 519.01,779.836 517.5,778.5C 514.946,773.837 513.613,768.837 513.5,763.5C 520.532,763.17 527.532,763.503 534.5,764.5C 535.1,767.349 536.433,769.682 538.5,771.5C 539.833,772.167 540.833,773.167 541.5,774.5C 543.331,776.776 545.664,778.609 548.5,780C 554.833,780.667 561.167,780.667 567.5,780C 577.789,774.343 580.289,766.177 575,755.5C 572.92,753.877 570.754,752.377 568.5,751C 557.557,747.514 546.557,744.18 535.5,741C 532.264,739.214 528.93,737.714 525.5,736.5C 512.9,723.176 511.233,708.509 520.5,692.5C 533.561,680.235 548.894,676.401 566.5,681C 582.742,685.407 592.076,695.907 594.5,712.5C 587.5,712.5 580.5,712.5 573.5,712.5C 573.737,711.209 573.404,710.209 572.5,709.5 Z"/></g>
<g><path style="opacity:1" fill="#001e36" d="M 245.5,692.5 C 247.98,696.109 250.48,699.776 253,703.5C 255.596,708.887 257.096,714.553 257.5,720.5C 250.167,720.5 242.833,720.5 235.5,720.5C 231.638,702.885 220.638,695.052 202.5,697C 198.533,697.483 194.866,698.816 191.5,701C 190.262,701.69 190.262,702.19 191.5,702.5C 188.833,704.5 186.5,706.833 184.5,709.5C 183.671,708.668 182.838,709.001 182,710.5C 171.716,729.713 172.05,748.713 183,767.5C 194.896,780.426 208.729,782.926 224.5,775C 228.593,771.96 231.593,768.127 233.5,763.5C 233.328,762.508 233.662,761.842 234.5,761.5C 242.08,760.534 249.747,760.201 257.5,760.5C 256.465,767.236 253.798,773.236 249.5,778.5C 249.624,779.107 249.957,779.44 250.5,779.5C 248.167,782.5 245.5,785.167 242.5,787.5C 242.44,786.957 242.107,786.624 241.5,786.5C 222.574,799.054 202.574,800.888 181.5,792C 164.302,781.774 154.802,766.607 153,746.5C 151.839,732.14 154.339,718.473 160.5,705.5C 160.75,703.326 161.75,701.659 163.5,700.5C 169.272,694.385 175.606,689.052 182.5,684.5C 195.531,680.662 208.864,679.495 222.5,681C 231.015,683.258 238.682,687.091 245.5,692.5 Z"/></g>
<g><path style="opacity:1" fill="#f1f1ef" d="M 853.5,730.5 C 859.31,729.51 865.31,729.177 871.5,729.5C 871.666,723.824 871.499,718.157 871,712.5C 870.329,711.748 869.496,711.414 868.5,711.5C 863.5,711.5 858.5,711.5 853.5,711.5C 853.666,703.16 853.5,694.827 853,686.5C 846,685.167 839,685.167 832,686.5C 831.5,694.827 831.334,703.16 831.5,711.5C 827.833,711.5 824.167,711.5 820.5,711.5C 819.883,711.611 819.383,711.944 819,712.5C 818.501,718.157 818.334,723.824 818.5,729.5C 822.833,729.5 827.167,729.5 831.5,729.5C 831.5,729.833 831.5,730.167 831.5,730.5C 825.652,730.387 819.986,730.387 814.5,730.5C 813.833,724.681 813.167,719.014 812.5,713.5C 812.423,712.25 811.756,711.417 810.5,711C 805.833,710.333 801.167,710.333 796.5,711C 793.975,711.424 791.975,712.59 790.5,714.5C 787.269,716.22 784.436,718.553 782,721.5C 781.098,719.073 780.264,716.74 779.5,714.5C 779.586,713.504 779.252,712.671 778.5,712C 772.584,711.193 766.75,711.359 761,712.5C 760.333,740.5 760.333,768.5 761,796.5C 768.079,797.48 775.245,797.813 782.5,797.5C 782.333,780.83 782.5,764.163 783,747.5C 783.24,745.148 784.073,743.148 785.5,741.5C 786.289,741.783 786.956,742.283 787.5,743C 786.151,743.772 785.318,744.939 785,746.5C 784.667,763.5 784.333,780.5 784,797.5C 783.25,798.126 782.416,798.626 781.5,799C 774.167,799.667 766.833,799.667 759.5,799C 757.665,798.072 757.332,796.906 758.5,795.5C 757.926,793.941 757.26,792.441 756.5,791C 757.448,790.517 758.448,790.351 759.5,790.5C 759.793,780.549 759.126,770.715 757.5,761C 758.167,750.667 758.833,740.333 759.5,730C 759.466,725.967 759.133,721.8 758.5,717.5C 758.453,714.705 758.953,712.039 760,709.5C 765.631,709.427 771.464,709.594 777.5,710C 779.5,710.667 780.833,712 781.5,714C 782.5,714.167 783.5,714.333 784.5,714.5C 788.823,712.673 793.156,710.839 797.5,709C 803.196,708.17 808.863,708.337 814.5,709.5C 815.813,711.885 817.48,712.052 819.5,710C 822.817,709.502 826.15,709.335 829.5,709.5C 829.334,702.159 829.5,694.826 830,687.5C 832.153,684.08 835.319,682.747 839.5,683.5C 843.429,684.155 847.263,684.155 851,683.5C 852.512,684.257 853.846,685.257 855,686.5C 855.5,694.159 855.666,701.826 855.5,709.5C 860.959,709.103 866.292,709.603 871.5,711C 874.182,716.276 875.849,721.61 876.5,727C 875.552,727.483 874.552,727.649 873.5,727.5C 873.5,728.5 873.5,729.5 873.5,730.5C 866.833,730.5 860.167,730.5 853.5,730.5 Z"/></g>
<g><path style="opacity:1" fill="#05060d" d="M 182.5,684.5 C 175.606,689.052 169.272,694.385 163.5,700.5C 168,693 174.334,687.667 182.5,684.5 Z"/></g>
<g><path style="opacity:1" fill="#030714" d="M 853.5,711.5 C 852.508,703.684 852.174,695.684 852.5,687.5C 846.167,687.5 839.833,687.5 833.5,687.5C 834.134,695.903 833.467,703.903 831.5,711.5C 831.334,703.16 831.5,694.827 832,686.5C 839,685.167 846,685.167 853,686.5C 853.5,694.827 853.666,703.16 853.5,711.5 Z"/></g>
<g><path style="opacity:1" fill="#001e37" d="M 637.5,729.5 C 636.339,743.661 636.173,757.994 637,772.5C 637.612,775.115 639.112,776.781 641.5,777.5C 642.058,778.79 643.058,779.623 644.5,780C 648.486,780.499 652.486,780.666 656.5,780.5C 656.5,785.833 656.5,791.167 656.5,796.5C 648.473,797.947 640.473,797.78 632.5,796C 628,794.253 624,791.753 620.5,788.5C 618.629,784.383 617.462,780.049 617,775.5C 616.831,759.995 616.331,744.661 615.5,729.5C 611.702,728.517 607.702,728.183 603.5,728.5C 603.5,723.5 603.5,718.5 603.5,713.5C 619.5,713.167 619.5,712.833 603.5,712.5C 607.298,711.517 611.298,711.183 615.5,711.5C 616.492,703.684 616.826,695.684 616.5,687.5C 622.833,687.5 629.167,687.5 635.5,687.5C 635.334,695.507 635.5,703.507 636,711.5C 636.5,712 637,712.5 637.5,713C 643.157,713.499 648.824,713.666 654.5,713.5C 654.5,718.5 654.5,723.5 654.5,728.5C 648.642,728.178 642.975,728.511 637.5,729.5 Z"/></g>
<g><path style="opacity:1" fill="#0a0d19" d="M 637.5,729.5 C 642.975,728.511 648.642,728.178 654.5,728.5C 654.5,723.5 654.5,718.5 654.5,713.5C 648.824,713.666 643.157,713.499 637.5,713C 637,712.5 636.5,712 636,711.5C 635.5,703.507 635.334,695.507 635.5,687.5C 629.167,687.5 622.833,687.5 616.5,687.5C 616.826,695.684 616.492,703.684 615.5,711.5C 615.5,703.167 615.5,694.833 615.5,686.5C 622.568,685.173 629.735,685.173 637,686.5C 637.5,694.827 637.666,703.16 637.5,711.5C 643.5,711.5 649.5,711.5 655.5,711.5C 655.5,717.5 655.5,723.5 655.5,729.5C 649.5,729.5 643.5,729.5 637.5,729.5 Z"/></g>
<g><path style="opacity:1" fill="#001f37" d="M 853.5,711.5 C 858.5,711.5 863.5,711.5 868.5,711.5C 863.684,712.326 858.684,712.826 853.5,713C 859.157,713.499 864.824,713.666 870.5,713.5C 870.5,718.5 870.5,723.5 870.5,728.5C 864.242,728.19 858.076,728.524 852,729.5C 851.333,742.833 851.333,756.167 852,769.5C 852.831,774.681 855.664,778.181 860.5,780C 864.486,780.499 868.486,780.666 872.5,780.5C 873.081,785.975 872.414,791.142 870.5,796C 860.433,798.627 850.767,797.627 841.5,793C 837.896,790.292 835.396,786.792 834,782.5C 833.667,765.167 833.333,747.833 833,730.5C 832.617,729.944 832.117,729.611 831.5,729.5C 828.038,728.518 824.371,728.185 820.5,728.5C 820.5,723.5 820.5,718.5 820.5,713.5C 824.182,713.665 827.848,713.499 831.5,713C 827.644,712.823 823.977,712.323 820.5,711.5C 824.167,711.5 827.833,711.5 831.5,711.5C 833.467,703.903 834.134,695.903 833.5,687.5C 839.833,687.5 846.167,687.5 852.5,687.5C 852.174,695.684 852.508,703.684 853.5,711.5 Z"/></g>
<g><path style="opacity:1" fill="#111116" d="M 572.5,709.5 C 573.404,710.209 573.737,711.209 573.5,712.5C 580.5,712.5 587.5,712.5 594.5,712.5C 592.076,695.907 582.742,685.407 566.5,681C 548.894,676.401 533.561,680.235 520.5,692.5C 522.684,688.221 526.018,685.054 530.5,683C 548.54,674.849 565.873,676.183 582.5,687C 589.902,693.967 594.568,702.467 596.5,712.5C 588.528,713.498 580.528,713.831 572.5,713.5C 572.5,712.167 572.5,710.833 572.5,709.5 Z"/></g>
<g><path style="opacity:1" fill="#0a0910" d="M 572.5,709.5 C 565.132,697.155 554.799,693.822 541.5,699.5C 540.262,699.19 540.262,698.69 541.5,698C 546.939,695.629 552.606,694.963 558.5,696C 565.684,698.02 570.351,702.52 572.5,709.5 Z"/></g>
<g><path style="opacity:1" fill="#f6f6f5" d="M 365.5,797.5 C 372.09,797.811 378.59,797.478 385,796.5C 385.333,779.167 385.667,761.833 386,744.5C 386.573,742.359 387.406,740.359 388.5,738.5C 390.858,736.471 393.192,734.471 395.5,732.5C 401.789,731.628 408.122,731.295 414.5,731.5C 418.575,709.553 410.575,703.719 390.5,714C 388.294,716.037 386.294,718.203 384.5,720.5C 383.833,719.5 383.167,718.5 382.5,717.5C 382.643,715.738 382.309,714.071 381.5,712.5C 375.537,711.504 369.537,711.171 363.5,711.5C 363.175,740.24 363.509,768.907 364.5,797.5C 364.095,798.55 363.429,798.55 362.5,797.5C 361.456,769.008 361.289,740.341 362,711.5C 362.75,710.874 363.584,710.374 364.5,710C 370.832,709.059 376.999,709.559 383,711.5C 383.49,712.793 383.657,714.127 383.5,715.5C 387.021,715.17 390.021,713.67 392.5,711C 399.726,708.162 407.059,707.829 414.5,710C 415,710.5 415.5,711 416,711.5C 416.667,717.833 416.667,724.167 416,730.5C 413.557,733.55 410.557,734.216 407,732.5C 400.022,732.488 394.188,734.988 389.5,740C 390.167,740.333 390.833,740.667 391.5,741C 391.018,742.008 390.852,743.175 391,744.5C 390.259,743.359 389.425,743.359 388.5,744.5C 387.062,746.998 387.396,749.164 389.5,751C 388.762,754.616 388.096,758.282 387.5,762C 387.942,771.548 388.608,781.214 389.5,791C 387.946,793.224 386.946,795.724 386.5,798.5C 384.668,799.248 383.001,800.248 381.5,801.5C 380.304,801.154 380.304,800.654 381.5,800C 377.167,799.667 372.833,799.333 368.5,799C 367.263,798.768 366.263,798.268 365.5,797.5 Z"/></g>
<g><path style="opacity:1" fill="#011d35" d="M 342.5,726.5 C 344.25,727.659 345.25,729.326 345.5,731.5C 351.835,749.492 350.502,766.826 341.5,783.5C 340.243,786.427 338.243,788.761 335.5,790.5C 335.44,789.957 335.107,789.624 334.5,789.5C 319.069,798.932 303.069,799.932 286.5,792.5C 279.848,789.347 275.015,784.347 272,777.5C 270.368,773.968 269.201,770.301 268.5,766.5C 269.329,759.345 269.829,752.011 270,744.5C 276.029,720.228 291.529,709.395 316.5,712C 327.108,713.468 335.775,718.301 342.5,726.5 Z"/></g>
<g><path style="opacity:1" fill="#001e36" d="M 395.5,732.5 C 393.192,734.471 390.858,736.471 388.5,738.5C 388.19,737.262 387.69,737.262 387,738.5C 386,740.833 385,743.167 384,745.5C 383.5,762.163 383.333,778.83 383.5,795.5C 377.167,795.5 370.833,795.5 364.5,795.5C 364.5,768.167 364.5,740.833 364.5,713.5C 369.833,713.5 375.167,713.5 380.5,713.5C 380.678,716.216 381.178,718.883 382,721.5C 382.49,720.207 382.657,718.873 382.5,717.5C 383.167,718.5 383.833,719.5 384.5,720.5C 384.435,720.938 384.601,721.272 385,721.5C 392.501,711.883 401.834,709.216 413,713.5C 413.499,718.823 413.666,724.156 413.5,729.5C 409.486,729.334 405.486,729.501 401.5,730C 399.026,730.037 397.026,730.87 395.5,732.5 Z"/></g>
<g><path style="opacity:1" fill="#001e36" d="M 723.5,788.5 C 723.167,788.5 722.833,788.5 722.5,788.5C 709.567,798.397 695.233,799.897 679.5,793C 670.34,786.539 666.84,777.706 669,766.5C 671.833,758.333 677.333,752.833 685.5,750C 689.661,748.263 693.995,747.263 698.5,747C 706.833,746.667 715.167,746.333 723.5,746C 724.894,745.044 725.561,743.711 725.5,742C 725.172,738.813 724.172,735.98 722.5,733.5C 718.812,728.262 713.645,725.929 707,726.5C 704.449,726.625 701.949,726.958 699.5,727.5C 695.791,729.223 693.791,732.223 693.5,736.5C 686.833,736.5 680.167,736.5 673.5,736.5C 673.717,731.967 674.717,727.634 676.5,723.5C 687.699,712.861 701.032,709.028 716.5,712C 731.805,714.971 740.638,724.137 743,739.5C 743.5,758.164 743.667,776.83 743.5,795.5C 737.5,795.5 731.5,795.5 725.5,795.5C 726.01,792.612 725.344,790.279 723.5,788.5 Z"/></g>
<g><path style="opacity:1" fill="#101118" d="M 342.5,726.5 C 335.775,718.301 327.108,713.468 316.5,712C 291.529,709.395 276.029,720.228 270,744.5C 269.829,752.011 269.329,759.345 268.5,766.5C 265.509,751.289 268.342,737.289 277,724.5C 293.316,707.928 311.816,705.094 332.5,716C 336.734,718.732 340.067,722.232 342.5,726.5 Z"/></g>
<g><path style="opacity:1" fill="#08080f" d="M 473.5,715.5 C 460.193,709.891 447.193,710.558 434.5,717.5C 440.58,712.181 447.746,709.848 456,710.5C 462.623,709.88 468.456,711.546 473.5,715.5 Z"/></g>
<g><path style="opacity:1" fill="#000002" d="M 603.5,712.5 C 619.5,712.833 619.5,713.167 603.5,713.5C 603.5,718.5 603.5,723.5 603.5,728.5C 607.702,728.183 611.702,728.517 615.5,729.5C 611.167,729.5 606.833,729.5 602.5,729.5C 602.178,723.642 602.511,717.975 603.5,712.5 Z"/></g>
<g><path style="opacity:1" fill="#121318" d="M 395.5,732.5 C 397.026,730.87 399.026,730.037 401.5,730C 405.486,729.501 409.486,729.334 413.5,729.5C 413.666,724.156 413.499,718.823 413,713.5C 401.834,709.216 392.501,711.883 385,721.5C 384.601,721.272 384.435,720.938 384.5,720.5C 386.294,718.203 388.294,716.037 390.5,714C 410.575,703.719 418.575,709.553 414.5,731.5C 408.122,731.295 401.789,731.628 395.5,732.5 Z"/></g>
<g><path style="opacity:1" fill="#02030e" d="M 820.5,711.5 C 823.977,712.323 827.644,712.823 831.5,713C 827.848,713.499 824.182,713.665 820.5,713.5C 820.5,718.5 820.5,723.5 820.5,728.5C 824.371,728.185 828.038,728.518 831.5,729.5C 827.167,729.5 822.833,729.5 818.5,729.5C 818.334,723.824 818.501,718.157 819,712.5C 819.383,711.944 819.883,711.611 820.5,711.5 Z"/></g>
<g><path style="opacity:1" fill="#0a0a10" d="M 245.5,692.5 C 253.972,700.208 258.639,709.874 259.5,721.5C 251.167,721.5 242.833,721.5 234.5,721.5C 230.175,702.986 218.508,695.486 199.5,699C 196.69,699.906 194.024,701.073 191.5,702.5C 190.262,702.19 190.262,701.69 191.5,701C 194.866,698.816 198.533,697.483 202.5,697C 220.638,695.052 231.638,702.885 235.5,720.5C 242.833,720.5 250.167,720.5 257.5,720.5C 257.096,714.553 255.596,708.887 253,703.5C 250.48,699.776 247.98,696.109 245.5,692.5 Z"/></g>
<g><path style="opacity:1" fill="#0a0a11" d="M 520.5,692.5 C 511.233,708.509 512.9,723.176 525.5,736.5C 519.496,732.862 515.663,727.528 514,720.5C 512.443,711.339 513.777,702.672 518,694.5C 518.708,693.619 519.542,692.953 520.5,692.5 Z"/></g>
<g><path style="opacity:1" fill="#17181c" d="M 382.5,717.5 C 382.657,718.873 382.49,720.207 382,721.5C 381.178,718.883 380.678,716.216 380.5,713.5C 375.167,713.5 369.833,713.5 364.5,713.5C 364.5,740.833 364.5,768.167 364.5,795.5C 370.833,795.5 377.167,795.5 383.5,795.5C 383.333,778.83 383.5,762.163 384,745.5C 385,743.167 386,740.833 387,738.5C 387.69,737.262 388.19,737.262 388.5,738.5C 387.406,740.359 386.573,742.359 386,744.5C 385.667,761.833 385.333,779.167 385,796.5C 378.59,797.478 372.09,797.811 365.5,797.5C 365.167,797.5 364.833,797.5 364.5,797.5C 363.509,768.907 363.175,740.24 363.5,711.5C 369.537,711.171 375.537,711.504 381.5,712.5C 382.309,714.071 382.643,715.738 382.5,717.5 Z"/></g>
<g><path style="opacity:1" fill="#0d0d13" d="M 471.5,731.5 C 467.585,729.478 463.419,728.144 459,727.5C 454.209,728.313 450.042,730.313 446.5,733.5C 446.511,731.983 447.177,730.816 448.5,730C 456.733,724.903 464.399,725.403 471.5,731.5 Z"/></g>
<g><path style="opacity:1" fill="#080910" d="M 537.5,703.5 C 533.967,710.968 535.634,717.134 542.5,722C 554.003,726.127 565.67,729.794 577.5,733C 587.86,736.191 594.194,743.024 596.5,753.5C 596.631,754.239 596.464,754.906 596,755.5C 594.518,748.036 590.684,742.203 584.5,738C 574.724,732.972 564.391,729.639 553.5,728C 549.419,726.529 545.419,724.862 541.5,723C 534.495,718.006 532.662,711.506 536,703.5C 536.69,702.262 537.19,702.262 537.5,703.5 Z"/></g>
<g><path style="opacity:1" fill="#090a10" d="M 426.5,725.5 C 415.525,745.753 415.858,765.753 427.5,785.5C 420.197,776.587 416.863,766.254 417.5,754.5C 417.112,743.669 420.112,734.003 426.5,725.5 Z"/></g>
<g><path style="opacity:1" fill="#f7f2e8" d="M 471.5,731.5 C 482.063,744.318 483.23,757.984 475,772.5C 464.647,783.076 454.314,783.076 444,772.5C 437.622,759.488 438.122,746.821 445.5,734.5C 446.167,734.5 446.5,734.167 446.5,733.5C 450.042,730.313 454.209,728.313 459,727.5C 463.419,728.144 467.585,729.478 471.5,731.5 Z"/></g>
<g><path style="opacity:1" fill="#e8e8e8" d="M 615.5,686.5 C 615.5,694.833 615.5,703.167 615.5,711.5C 611.298,711.183 607.298,711.517 603.5,712.5C 602.511,717.975 602.178,723.642 602.5,729.5C 606.833,729.5 611.167,729.5 615.5,729.5C 615.333,746.17 615.5,762.837 616,779.5C 616.744,781.9 617.577,784.233 618.5,786.5C 616.386,785.093 614.886,783.093 614,780.5C 613.5,764.17 613.333,747.837 613.5,731.5C 610.223,731.216 607.057,731.549 604,732.5C 602.122,730.957 600.622,729.124 599.5,727C 600.119,722.121 600.619,716.955 601,711.5C 602.473,709.993 604.307,709.326 606.5,709.5C 608.858,709.753 611.192,710.086 613.5,710.5C 612.866,702.097 613.533,694.097 615.5,686.5 Z"/></g>
<g><path style="opacity:1" fill="#030306" d="M 615.5,729.5 C 616.331,744.661 616.831,759.995 617,775.5C 617.462,780.049 618.629,784.383 620.5,788.5C 619.5,788.167 618.833,787.5 618.5,786.5C 617.577,784.233 616.744,781.9 616,779.5C 615.5,762.837 615.333,746.17 615.5,729.5 Z"/></g>
<g><path style="opacity:1" fill="#f8f3e8" d="M 321.5,732.5 C 329.018,744.453 330.018,756.953 324.5,770C 324.167,770.5 323.833,771 323.5,771.5C 323.167,770.833 322.833,770.167 322.5,769.5C 321.5,770.5 320.5,771.5 319.5,772.5C 320.229,774.595 319.563,776.428 317.5,778C 305.952,782.048 297.785,778.548 293,767.5C 292.119,763.496 291.286,759.496 290.5,755.5C 291.903,750.608 292.57,745.608 292.5,740.5C 293.167,738.5 293.833,736.5 294.5,734.5C 300.351,728.811 307.351,726.978 315.5,729C 317.91,729.6 319.91,730.766 321.5,732.5 Z"/></g>
<g><path style="opacity:1" fill="#f5f2ed" d="M 670.5,786.5 C 679.819,796.884 691.486,800.717 705.5,798C 712.417,796.879 718.084,793.713 722.5,788.5C 722.833,788.5 723.167,788.5 723.5,788.5C 724.159,791.455 724.492,794.455 724.5,797.5C 731.09,797.811 737.59,797.478 744,796.5C 744.667,776.5 744.667,756.5 744,736.5C 738.953,717.787 726.619,708.787 707,709.5C 697.7,709.379 689.2,711.879 681.5,717C 679.21,718.777 677.543,720.944 676.5,723.5C 674.59,724.975 673.424,726.975 673,729.5C 672.503,732.146 672.336,734.813 672.5,737.5C 679.833,737.5 687.167,737.5 694.5,737.5C 695.109,733.615 696.776,730.282 699.5,727.5C 701.949,726.958 704.449,726.625 707,726.5C 713.645,725.929 718.812,728.262 722.5,733.5C 723.244,737.119 723.577,740.785 723.5,744.5C 706.886,742.407 691.219,745.24 676.5,753C 668.271,760.023 665.437,768.856 668,779.5C 668.505,781.518 669.005,783.518 669.5,785.5C 667.175,784.345 666.008,782.345 666,779.5C 663.721,768.077 667.054,758.743 676,751.5C 677.564,749.335 677.397,747.668 675.5,746.5C 676.624,745.086 677.624,743.586 678.5,742C 676.421,740.36 674.088,739.194 671.5,738.5C 670.055,733.967 670.388,729.634 672.5,725.5C 671.988,723.116 671.321,720.783 670.5,718.5C 670.833,718.167 671.167,717.833 671.5,717.5C 672.869,719.124 674.536,719.624 676.5,719C 676.167,718.667 675.833,718.333 675.5,718C 679.932,717.377 680.265,716.377 676.5,715C 678.295,714.743 680.295,714.077 682.5,713C 682.727,711.865 683.06,710.698 683.5,709.5C 684.478,709.977 685.311,710.643 686,711.5C 687.066,709.901 688.566,708.901 690.5,708.5C 694.963,708.982 699.296,708.982 703.5,708.5C 704.795,707.902 706.128,707.402 707.5,707C 705.233,705.919 705.066,704.419 707,702.5C 708.188,703.563 708.688,704.897 708.5,706.5C 710.591,706.682 712.591,706.348 714.5,705.5C 716.167,708.167 717.833,708.167 719.5,705.5C 718.983,707.019 719.65,708.352 721.5,709.5C 723.952,711.084 726.452,711.417 729,710.5C 730.188,711.563 730.688,712.897 730.5,714.5C 732.467,714.739 734.301,714.406 736,713.5C 736.353,714.672 736.187,715.838 735.5,717C 741.446,722.887 744.946,730.053 746,738.5C 746.333,754.167 746.667,769.833 747,785.5C 747.311,787.556 747.811,789.556 748.5,791.5C 748.154,792.696 747.654,792.696 747,791.5C 746.57,794.192 746.737,796.859 747.5,799.5C 740.268,799.456 732.935,799.289 725.5,799C 724.167,798.667 722.833,798.333 721.5,798C 722.841,794.738 722.508,794.238 720.5,796.5C 718.675,795.429 717.508,796.096 717,798.5C 716.107,797.919 715.107,797.585 714,797.5C 700.539,801.78 687.373,801.113 674.5,795.5C 673.817,792.223 671.817,789.39 668.5,787C 669.094,786.536 669.761,786.369 670.5,786.5 Z"/></g>
<g><path style="opacity:1" fill="#030309" d="M 676.5,723.5 C 674.717,727.634 673.717,731.967 673.5,736.5C 680.167,736.5 686.833,736.5 693.5,736.5C 693.791,732.223 695.791,729.223 699.5,727.5C 696.776,730.282 695.109,733.615 694.5,737.5C 687.167,737.5 679.833,737.5 672.5,737.5C 672.336,734.813 672.503,732.146 673,729.5C 673.424,726.975 674.59,724.975 676.5,723.5 Z"/></g>
<g><path style="opacity:1" fill="#04040a" d="M 329.5,761.5 C 330.645,752.217 328.979,743.55 324.5,735.5C 324.81,734.262 325.31,734.262 326,735.5C 330.389,743.851 331.556,752.517 329.5,761.5 Z"/></g>
<g><path style="opacity:1" fill="#03030a" d="M 637.5,729.5 C 637.333,742.837 637.5,756.171 638,769.5C 638.368,772.565 639.535,775.232 641.5,777.5C 639.112,776.781 637.612,775.115 637,772.5C 636.173,757.994 636.339,743.661 637.5,729.5 Z"/></g>
<g><path style="opacity:1" fill="#0b0c13" d="M 722.5,733.5 C 724.172,735.98 725.172,738.813 725.5,742C 725.561,743.711 724.894,745.044 723.5,746C 715.167,746.333 706.833,746.667 698.5,747C 693.995,747.263 689.661,748.263 685.5,750C 677.333,752.833 671.833,758.333 669,766.5C 666.84,777.706 670.34,786.539 679.5,793C 695.233,799.897 709.567,798.397 722.5,788.5C 718.084,793.713 712.417,796.879 705.5,798C 691.486,800.717 679.819,796.884 670.5,786.5C 670.5,785.833 670.167,785.5 669.5,785.5C 669.005,783.518 668.505,781.518 668,779.5C 665.437,768.856 668.271,760.023 676.5,753C 691.219,745.24 706.886,742.407 723.5,744.5C 723.577,740.785 723.244,737.119 722.5,733.5 Z"/></g>
<g><path style="opacity:1" fill="#121319" d="M 250.5,779.5 C 249.957,779.44 249.624,779.107 249.5,778.5C 253.798,773.236 256.465,767.236 257.5,760.5C 249.747,760.201 242.08,760.534 234.5,761.5C 234.414,760.504 234.748,759.671 235.5,759C 243.159,758.5 250.826,758.334 258.5,758.5C 258.189,766.439 255.522,773.439 250.5,779.5 Z"/></g>
<g><path style="opacity:1" fill="#0c0d14" d="M 723.5,788.5 C 725.344,790.279 726.01,792.612 725.5,795.5C 731.5,795.5 737.5,795.5 743.5,795.5C 743.667,776.83 743.5,758.164 743,739.5C 740.638,724.137 731.805,714.971 716.5,712C 701.032,709.028 687.699,712.861 676.5,723.5C 677.543,720.944 679.21,718.777 681.5,717C 689.2,711.879 697.7,709.379 707,709.5C 726.619,708.787 738.953,717.787 744,736.5C 744.667,756.5 744.667,776.5 744,796.5C 737.59,797.478 731.09,797.811 724.5,797.5C 724.492,794.455 724.159,791.455 723.5,788.5 Z"/></g>
<g><path style="opacity:1" fill="#05060e" d="M 479.5,788.5 C 480.864,790.22 481.864,792.22 482.5,794.5C 488.128,795.495 493.794,795.829 499.5,795.5C 499.5,755.833 499.5,716.167 499.5,676.5C 493.167,676.5 486.833,676.5 480.5,676.5C 480.667,690.837 480.5,705.171 480,719.5C 477.123,719.869 474.956,718.535 473.5,715.5C 475.463,716.684 477.463,717.517 479.5,718C 478.344,704.242 478.177,690.408 479,676.5C 486.079,675.52 493.245,675.187 500.5,675.5C 500.17,715.739 500.503,755.906 501.5,796C 495.004,797.622 488.337,797.956 481.5,797C 480.518,794.262 479.852,791.428 479.5,788.5 Z"/></g>
<g><path style="opacity:1" fill="#06060b" d="M 538.5,771.5 C 536.433,769.682 535.1,767.349 534.5,764.5C 527.532,763.503 520.532,763.17 513.5,763.5C 513.613,768.837 514.946,773.837 517.5,778.5C 513.38,774.062 511.38,768.729 511.5,762.5C 519.507,762.334 527.507,762.5 535.5,763C 536.423,765.86 537.423,768.693 538.5,771.5 Z"/></g>
<g><path style="opacity:1" fill="#0f1016" d="M 345.5,731.5 C 350.713,740.403 352.546,750.069 351,760.5C 349.974,769.198 346.807,776.865 341.5,783.5C 350.502,766.826 351.835,749.492 345.5,731.5 Z"/></g>
<g><path style="opacity:1" fill="#05060e" d="M 597.5,756.5 C 598.133,764.449 596.966,772.116 594,779.5C 593.051,781.093 591.885,782.426 590.5,783.5C 594.745,774.924 597.078,765.924 597.5,756.5 Z"/></g>
<g><path style="opacity:1" fill="#101116" d="M 160.5,705.5 C 154.339,718.473 151.839,732.14 153,746.5C 154.802,766.607 164.302,781.774 181.5,792C 202.574,800.888 222.574,799.054 241.5,786.5C 242.107,786.624 242.44,786.957 242.5,787.5C 219.293,803.322 195.96,803.489 172.5,788C 155.129,771.555 148.296,751.389 152,727.5C 152.997,719.324 155.83,711.991 160.5,705.5 Z"/></g>
<g><path style="opacity:1" fill="#eae9e8" d="M 321.5,732.5 C 322.728,733.306 323.728,734.306 324.5,735.5C 328.979,743.55 330.645,752.217 329.5,761.5C 326.623,777.276 317.29,783.609 301.5,780.5C 292.612,774.047 288.612,765.213 289.5,754C 289.11,749.058 290.11,744.558 292.5,740.5C 292.57,745.608 291.903,750.608 290.5,755.5C 291.286,759.496 292.119,763.496 293,767.5C 297.785,778.548 305.952,782.048 317.5,778C 319.563,776.428 320.229,774.595 319.5,772.5C 320.5,771.5 321.5,770.5 322.5,769.5C 322.833,770.167 323.167,770.833 323.5,771.5C 323.833,771 324.167,770.5 324.5,770C 330.018,756.953 329.018,744.453 321.5,732.5 Z"/></g>
<g><path style="opacity:1" fill="#0a0b12" d="M 525.5,736.5 C 528.93,737.714 532.264,739.214 535.5,741C 546.557,744.18 557.557,747.514 568.5,751C 570.754,752.377 572.92,753.877 575,755.5C 580.289,766.177 577.789,774.343 567.5,780C 561.167,780.667 554.833,780.667 548.5,780C 545.664,778.609 543.331,776.776 541.5,774.5C 551.186,780.488 561.186,780.988 571.5,776C 577.077,770.146 577.91,763.646 574,756.5C 572.59,755.213 571.09,754.046 569.5,753C 559.69,749.381 549.69,746.381 539.5,744C 534.326,742.249 529.659,739.749 525.5,736.5 Z"/></g>
<g><path style="opacity:1" fill="#151519" d="M 294.5,734.5 C 293.833,736.5 293.167,738.5 292.5,740.5C 290.11,744.558 289.11,749.058 289.5,754C 288.612,765.213 292.612,774.047 301.5,780.5C 294.279,777.756 290.112,772.423 289,764.5C 288.333,757.833 288.333,751.167 289,744.5C 290.086,740.654 291.919,737.32 294.5,734.5 Z"/></g>
<g><path style="opacity:1" fill="#0a0a10" d="M 471.5,731.5 C 473.017,731.511 474.184,732.177 475,733.5C 481.218,742.199 483.218,751.866 481,762.5C 476.566,778.301 466.399,784.134 450.5,780C 445.555,777.054 442.055,772.888 440,767.5C 437.218,756.425 438.218,745.758 443,735.5C 443.838,734.001 444.671,733.668 445.5,734.5C 438.122,746.821 437.622,759.488 444,772.5C 454.314,783.076 464.647,783.076 475,772.5C 483.23,757.984 482.063,744.318 471.5,731.5 Z"/></g>
<g><path style="opacity:1" fill="#0e0f16" d="M 704.5,759.5 C 698.692,759.821 693.858,762.154 690,766.5C 688.404,776.573 692.737,781.239 703,780.5C 717.239,780.094 724.072,772.761 723.5,758.5C 718.5,758.5 713.5,758.5 708.5,758.5C 707.448,758.649 706.448,758.483 705.5,758C 711.452,756.67 717.452,756.337 723.5,757C 726.767,768.466 722.767,776.466 711.5,781C 705.038,783.171 698.705,782.838 692.5,780C 684.421,769.787 686.754,762.787 699.5,759C 701.387,758.22 703.054,758.387 704.5,759.5 Z"/></g>
<g><path style="opacity:1" fill="#f7f3ea" d="M 708.5,758.5 C 713.5,758.5 718.5,758.5 723.5,758.5C 724.072,772.761 717.239,780.094 703,780.5C 692.737,781.239 688.404,776.573 690,766.5C 693.858,762.154 698.692,759.821 704.5,759.5C 706.099,759.768 707.432,759.434 708.5,758.5 Z"/></g>
<g><path style="opacity:1" fill="#080910" d="M 184.5,709.5 C 172.679,728.364 172.512,747.364 184,766.5C 195.283,778.946 208.45,781.446 223.5,774C 227.065,770.604 230.398,767.104 233.5,763.5C 231.593,768.127 228.593,771.96 224.5,775C 208.729,782.926 194.896,780.426 183,767.5C 172.05,748.713 171.716,729.713 182,710.5C 182.838,709.001 183.671,708.668 184.5,709.5 Z"/></g>
<g><path style="opacity:1" fill="#060813" d="M 868.5,711.5 C 869.496,711.414 870.329,711.748 871,712.5C 871.499,718.157 871.666,723.824 871.5,729.5C 865.31,729.177 859.31,729.51 853.5,730.5C 853.051,744.906 853.551,759.239 855,773.5C 856.251,776.381 858.417,778.214 861.5,779C 865.486,779.499 869.486,779.666 873.5,779.5C 873.5,785.5 873.5,791.5 873.5,797.5C 865.861,798.525 858.195,798.691 850.5,798C 840.778,795.945 834.611,790.112 832,780.5C 831.5,763.837 831.333,747.17 831.5,730.5C 831.5,730.167 831.5,729.833 831.5,729.5C 832.117,729.611 832.617,729.944 833,730.5C 833.333,747.833 833.667,765.167 834,782.5C 835.396,786.792 837.896,790.292 841.5,793C 850.767,797.627 860.433,798.627 870.5,796C 872.414,791.142 873.081,785.975 872.5,780.5C 868.486,780.666 864.486,780.499 860.5,780C 855.664,778.181 852.831,774.681 852,769.5C 851.333,756.167 851.333,742.833 852,729.5C 858.076,728.524 864.242,728.19 870.5,728.5C 870.5,723.5 870.5,718.5 870.5,713.5C 864.824,713.666 859.157,713.499 853.5,713C 858.684,712.826 863.684,712.326 868.5,711.5 Z"/></g>
<g><path style="opacity:1" fill="#16181d" d="M 812.5,713.5 C 812.5,719.5 812.5,725.5 812.5,731.5C 807.156,731.334 801.823,731.501 796.5,732C 791.408,733.596 787.742,736.763 785.5,741.5C 784.073,743.148 783.24,745.148 783,747.5C 782.5,764.163 782.333,780.83 782.5,797.5C 775.245,797.813 768.079,797.48 761,796.5C 760.333,768.5 760.333,740.5 761,712.5C 766.75,711.359 772.584,711.193 778.5,712C 779.252,712.671 779.586,713.504 779.5,714.5C 778.89,716.85 778.556,716.517 778.5,713.5C 773.167,713.5 767.833,713.5 762.5,713.5C 762.5,740.833 762.5,768.167 762.5,795.5C 768.833,795.5 775.167,795.5 781.5,795.5C 781.041,777.764 781.541,760.098 783,742.5C 789.359,731.751 798.859,727.418 811.5,729.5C 811.829,723.794 811.495,718.128 810.5,712.5C 803.649,711.197 796.982,711.863 790.5,714.5C 791.975,712.59 793.975,711.424 796.5,711C 801.167,710.333 805.833,710.333 810.5,711C 811.756,711.417 812.423,712.25 812.5,713.5 Z"/></g>
<g><path style="opacity:1" fill="#001e36" d="M 779.5,714.5 C 780.264,716.74 781.098,719.073 782,721.5C 784.436,718.553 787.269,716.22 790.5,714.5C 796.982,711.863 803.649,711.197 810.5,712.5C 811.495,718.128 811.829,723.794 811.5,729.5C 798.859,727.418 789.359,731.751 783,742.5C 781.541,760.098 781.041,777.764 781.5,795.5C 775.167,795.5 768.833,795.5 762.5,795.5C 762.5,768.167 762.5,740.833 762.5,713.5C 767.833,713.5 773.167,713.5 778.5,713.5C 778.556,716.517 778.89,716.85 779.5,714.5 Z"/></g>
<g><path style="opacity:1" fill="#121215" d="M 584.5,789.5 C 579.251,794.48 572.917,797.146 565.5,797.5C 564.448,797.649 563.448,797.483 562.5,797C 570.363,795.894 577.696,793.394 584.5,789.5 Z"/></g>
<g><path style="opacity:1" fill="#101015" d="M 335.5,790.5 C 323.179,798.36 309.846,800.527 295.5,797C 291.965,796.337 288.965,794.837 286.5,792.5C 303.069,799.932 319.069,798.932 334.5,789.5C 335.107,789.624 335.44,789.957 335.5,790.5 Z"/></g>
<g><path style="opacity:1" fill="#111218" d="M 517.5,778.5 C 519.01,779.836 520.677,781.003 522.5,782C 522.167,782.333 521.833,782.667 521.5,783C 532.313,793.742 545.313,798.909 560.5,798.5C 546.978,799.934 534.978,796.434 524.5,788C 521.538,785.219 519.204,782.052 517.5,778.5 Z"/></g>
<g><path style="opacity:1" fill="#0b0c14" d="M 641.5,777.5 C 647.011,779.21 652.677,779.877 658.5,779.5C 658.666,785.176 658.499,790.843 658,796.5C 657.25,797.126 656.416,797.626 655.5,798C 647.103,798.87 638.77,798.537 630.5,797C 626.052,795.304 622.719,792.471 620.5,788.5C 624,791.753 628,794.253 632.5,796C 640.473,797.78 648.473,797.947 656.5,796.5C 656.5,791.167 656.5,785.833 656.5,780.5C 652.486,780.666 648.486,780.499 644.5,780C 643.058,779.623 642.058,778.79 641.5,777.5 Z"/></g>
<g><path style="opacity:1" fill="#0d0d15" d="M 427.5,785.5 C 430.938,787.759 434.271,790.259 437.5,793C 450.624,798.222 463.291,797.388 475.5,790.5C 473.422,793.051 470.756,794.884 467.5,796C 457.237,799.671 447.237,799.171 437.5,794.5C 433.544,792.212 430.211,789.212 427.5,785.5 Z"/></g>
</svg>
